<svg width="225" height="90" viewBox="0 0 225 90" fill="none" xmlns="http://www.w3.org/2000/svg">
<path fill-rule="evenodd" clip-rule="evenodd" d="M93 25.0023C87.5639 27.419 80.8651 29.614 73.0304 31.6375V34.0543C73.0304 34.7219 73.0203 35.3712 73 36L74.3134 35.6616C80.5989 34.036 86.9985 32.1222 92.9772 29.646C92.9873 28.2124 92.9949 26.6622 93 25V25.0023Z" fill="#8BC34A" fill-opacity="0.97"/>
<path fill-rule="evenodd" clip-rule="evenodd" d="M91.8383 40.8954C103.641 35.0735 109.013 28.0024 106.431 19C106.398 22.811 101.237 26.6219 91.4235 30.4258C86.5391 32.3196 80.5039 34.211 73.3743 36.1C73.3766 36.1329 73.3766 36.1657 73.3789 36.1985C69.4274 37.3493 65.7594 38.3125 62.3961 39.1329C59.0094 39.9321 54.9641 40.8016 50.2368 41.7883C45.486 42.7516 42.5211 43.361 41.3469 43.6446C35.6305 44.8657 31.161 47.3079 27.8938 50.9243C24.6243 54.5664 23 58.9352 23 64.0797C23 67.8836 23.9891 71.4086 25.9649 74.6735C27.9407 77.9383 30.7625 80.4977 34.4071 82.4008C38.054 84.3039 42.2868 85.2672 47.1313 85.2672C52.4 85.2672 57.1743 84.3743 61.4329 82.6118C65.6657 80.8516 70.0625 78.1961 74.6258 74.6735C76.7422 78.1258 78.718 80.7321 80.6235 82.5414C82.5055 84.3508 84.411 85.2672 86.3375 85.2672C88.6204 85.2672 90.6899 84.468 92.4993 82.893C94.311 81.3203 95.2039 79.5578 95.2039 77.6313C95.2039 76.5274 94.6414 74.0618 93.4649 70.2344C92.2883 66.4047 91.7 62.7157 91.7 59.193C91.7469 55.436 91.7703 52.0047 91.7961 48.9274C91.8032 47.9149 91.8102 46.8227 91.8172 45.6555C86.2907 48.1938 80.375 50.1555 74.5649 51.8219L73.3508 52.1688C73.1914 57.6649 72.3547 61.6774 70.8383 64.2203C69.3571 66.7797 67.0532 68.8938 63.9008 70.5157C60.7508 72.1352 57.3149 72.9578 53.6 72.9578C50.1196 72.9578 47.2954 71.9711 45.1321 69.9743C42.9688 67.9774 41.886 65.5586 41.886 62.6946C41.886 59.9453 42.8047 57.8078 44.6399 56.2821C46.4727 54.7305 48.4016 53.6969 50.4243 53.1813C52.4469 52.6399 56.0938 51.8172 61.3602 50.6899C66.6055 49.5625 70.6274 48.5055 73.3789 47.4953V47.6993C80.6211 45.6227 86.8133 43.3727 91.8383 40.8954Z" fill="#64ABD3"/>
<mask id="mask0_217_371" style="mask-type:luminance" maskUnits="userSpaceOnUse" x="26" y="5" width="65" height="28">
<path d="M26 5H90.8V32.7734H26V5Z" fill="white"/>
</mask>
<g mask="url(#mask0_217_371)">
<path fill-rule="evenodd" clip-rule="evenodd" d="M72.9233 28.2173C78.6233 26.6962 84.3866 24.9923 89.8827 22.8619L90.6725 22.5548C90.2179 20.6376 89.6319 18.9056 88.9147 17.3634C86.9624 13.1353 83.6225 10.058 78.8952 8.10796C74.1679 6.1603 67.678 5.17358 59.3976 5.17358C51.989 5.17358 45.8272 6.18374 40.8655 8.20405C35.9015 10.222 32.2569 12.7837 29.9038 15.908C27.553 19.0322 26.3999 22.2501 26.3999 25.5384C26.3999 27.6525 27.1522 29.3916 28.7062 30.7298C30.2343 32.0916 32.0694 32.7736 34.1858 32.7736C36.5132 32.7736 38.0437 32.3494 38.7726 31.5056C39.478 30.6595 40.6991 28.897 42.4171 26.2439C44.1327 23.565 46.2046 21.5916 48.6257 20.2533C51.0257 18.915 54.6233 18.2564 59.3976 18.2564C64.971 18.2564 68.6179 19.4072 70.4038 21.7322C71.5968 23.2861 72.4335 25.4517 72.9233 28.2197V28.2173Z" fill="#64ABD3"/>
</g>
<mask id="mask1_217_371" style="mask-type:luminance" maskUnits="userSpaceOnUse" x="100" y="13" width="105" height="39">
<path d="M100.8 13.2002H204.6V51.6002H100.8V13.2002Z" fill="white"/>
</mask>
<g mask="url(#mask1_217_371)">
<mask id="mask2_217_371" style="mask-type:luminance" maskUnits="userSpaceOnUse" x="100" y="-19" width="106" height="105">
<path d="M138.853 -18.771L205.167 19.3688L167.03 85.6829L100.713 47.5454L138.853 -18.771Z" fill="white"/>
</mask>
<g mask="url(#mask2_217_371)">
<mask id="mask3_217_371" style="mask-type:luminance" maskUnits="userSpaceOnUse" x="100" y="-19" width="106" height="105">
<path d="M138.853 -18.771L205.167 19.3688L167.03 85.6829L100.713 47.5454L138.853 -18.771Z" fill="white"/>
</mask>
<g mask="url(#mask3_217_371)">
<path d="M155.321 42.3798C154.842 42.4782 154.235 42.49 154.156 42.3985C154.102 42.3353 154.273 42.3095 154.793 42.3071C155.185 42.3025 155.517 42.3071 155.534 42.3142C155.55 42.3212 155.454 42.3517 155.321 42.3798ZM147.202 47.0415C147.007 47.2571 146.728 47.5056 146.583 47.5946C146.224 47.8173 145.496 48.0001 144.537 48.1103C142.599 48.3329 141.703 48.4478 141.228 48.5368C140.799 48.6165 140.752 48.6142 140.93 48.5251C141.249 48.3657 141.987 48.1103 142.737 47.8993C143.105 47.7962 143.803 47.5665 144.291 47.3907C144.776 47.2126 145.559 46.9735 146.03 46.8564C146.93 46.6337 147.373 46.4298 147.717 46.0782L147.928 45.865L147.741 46.2587C147.619 46.5142 147.431 46.786 147.202 47.0415ZM142.941 45.6025C142.423 45.7103 141.675 45.8837 141.279 45.9868C140.621 46.1579 139.805 46.2728 139.05 46.3032L138.757 46.315L139.022 46.2212C139.167 46.1696 139.676 46.0665 140.152 45.9915C140.628 45.9165 141.422 45.7618 141.917 45.6517C142.413 45.5392 143.058 45.422 143.349 45.3939C143.897 45.3376 143.921 45.3376 143.897 45.3798C143.89 45.3939 143.459 45.4946 142.941 45.6025ZM154.852 39.9587C155.25 39.8087 155.981 39.1571 156.185 38.7728C156.3 38.5525 156.31 38.4728 156.239 38.3275L156.153 38.1493L156.71 37.6829C157.017 37.4275 157.533 37.0548 157.856 36.8532C158.806 36.2673 159.326 35.8126 160.067 34.915C160.845 33.9751 161.049 33.7782 161.466 33.5603C161.635 33.4735 161.965 33.2532 162.202 33.0728C163.252 32.2689 163.615 32.0345 164.817 31.3853C165.521 31.0056 166.378 30.4946 166.728 30.2485C167.431 29.747 167.841 29.4985 167.899 29.536C167.923 29.5501 168.063 29.6673 168.211 29.7985C168.518 30.0657 168.731 30.354 169.055 30.9306C169.179 31.1509 169.301 31.3548 169.327 31.3806C169.353 31.4087 169.2 31.5634 168.987 31.7275C168.776 31.8915 168.349 32.229 168.04 32.4821C167.529 32.8993 167.417 32.9603 166.756 33.1665C165.734 33.4876 164.398 34.0454 164.063 34.2915C163.908 34.4064 163.416 34.8142 162.971 35.2009C162.094 35.9603 161.691 36.2087 160.374 36.7923C159.502 37.1767 159.49 37.1884 158.838 38.0556C158.276 38.8056 157.774 39.2509 157.078 39.6282C156.389 40.0009 155.911 40.1251 155.238 40.1087C154.728 40.097 154.608 40.0501 154.852 39.9587ZM154.06 39.7243C154.036 39.6446 154.758 39.0118 155.081 38.829C155.344 38.6814 155.749 38.5454 155.82 38.5829C155.827 38.5876 155.731 38.7048 155.602 38.8431C155.262 39.211 154.718 39.5837 154.376 39.6821C154.21 39.729 154.067 39.7501 154.06 39.7243ZM168.928 29.1446C169.228 29.0603 169.503 29.1634 169.688 29.4306C169.749 29.5196 169.826 29.6907 169.859 29.815L169.92 30.04L169.777 29.904C169.697 29.829 169.411 29.6509 169.139 29.5056C168.87 29.3626 168.652 29.2407 168.654 29.2337C168.659 29.2243 168.781 29.1845 168.928 29.1446ZM169.992 30.9001L169.814 30.9821C169.653 31.0571 169.629 31.0501 169.549 30.9142C169.503 30.8321 169.327 30.5345 169.16 30.2509L168.856 29.7353L169.118 29.9228C169.261 30.0259 169.517 30.2884 169.685 30.5064L169.992 30.9001ZM152.857 39.9704C152.328 39.9095 152.079 39.8579 152.105 39.8087C152.126 39.7689 152.346 39.5087 152.59 39.2321C152.836 38.9556 153.075 38.6579 153.12 38.5735C153.218 38.3884 153.27 38.4071 153.385 38.665C153.441 38.7892 153.443 38.9907 153.394 39.2275C153.3 39.6704 153.314 39.7571 153.502 39.9282C153.635 40.0501 153.586 40.0548 152.857 39.9704ZM152.103 39.1337C151.514 39.7853 151.353 39.9189 151.071 39.9868L150.886 40.0314L151.027 39.8532C151.203 39.6306 152.665 38.3884 152.651 38.4728C152.646 38.5079 152.398 38.8056 152.103 39.1337ZM133.95 38.7142C133.885 38.3743 133.938 37.5306 134.056 37.0384C134.175 36.5462 134.405 35.8759 134.428 35.9509C134.435 35.9743 134.414 36.3821 134.381 36.8603C134.325 37.6595 134.238 38.1587 134.06 38.7001L133.99 38.9157L133.95 38.7142ZM171.795 34.9337C172.015 34.779 172.296 34.5306 172.423 34.3853C172.615 34.1603 172.695 34.1157 172.96 34.0853C173.592 34.015 173.843 34.0454 174.019 34.2212C174.15 34.3525 174.314 34.4134 174.945 34.5681C175.643 34.7392 176.042 34.8751 176.011 34.936C176.004 34.9478 175.791 34.9478 175.538 34.9337C174.633 34.8892 174.434 34.9923 174.563 35.4446C174.626 35.665 174.624 35.679 174.504 35.6579C174.436 35.6462 174.242 35.6204 174.073 35.6017C173.904 35.5829 173.56 35.529 173.306 35.4821C173.053 35.4353 172.603 35.3814 172.303 35.3603C171.809 35.3298 171.368 35.2665 171.387 35.2314C171.389 35.2243 171.574 35.0907 171.795 34.9337ZM177.72 32.5407C178.102 32.3884 178.683 32.1142 179.006 31.929C180.91 30.8579 181.451 30.64 180.579 31.3032C179.953 31.779 177.881 32.7071 177.27 32.7845C177.101 32.8079 177.244 32.7306 177.72 32.5407ZM161.857 39.6306C161.574 39.8814 161.156 40.1532 161.14 40.0993C161.117 40.015 161.611 39.4759 161.956 39.211L162.342 38.9134L162.237 39.1501C162.176 39.2884 162.017 39.49 161.857 39.6306ZM156.474 42.6025C157.074 42.3235 157.198 42.1267 156.999 41.761C156.813 41.4259 156.378 40.9689 156 40.7157L155.693 40.5095L155.902 40.4954C156.455 40.4603 157.65 39.8767 158.278 39.3353C158.499 39.1454 158.904 38.686 159.228 38.2618L159.792 37.5235L160.573 37.1767C162.094 36.504 162.284 36.3821 163.547 35.29C164.006 34.8892 164.461 34.5282 164.555 34.4837C164.81 34.3689 166.174 33.8017 166.416 33.7126L166.622 33.6353L166.503 33.7923C166.437 33.8767 166.207 34.2095 165.994 34.5282C165.403 35.4071 164.117 36.9142 163.449 37.5118C163.128 37.8025 162.521 38.2782 162.103 38.5712C161.304 39.1314 161.06 39.3704 160.814 39.8298C160.531 40.3571 160.774 40.7251 161.271 40.5259C161.611 40.3876 162.15 39.9939 162.417 39.6892C162.631 39.4407 162.638 39.4384 162.558 39.6329C162.427 39.961 162.258 40.1298 161.735 40.4603C161.222 40.786 161.081 40.9712 161.199 41.1751C161.295 41.3392 161.972 41.3321 162.521 41.1634C163.207 40.9501 164.358 40.3571 165.382 39.6845C166.824 38.7376 166.999 38.5665 168.012 37.1134C168.349 36.6282 168.703 36.1689 168.797 36.0915C168.963 35.9579 169.301 35.8525 170.276 35.6392C170.63 35.5595 170.871 35.5548 171.181 35.6181C171.413 35.6673 171.851 35.7282 172.156 35.754C173.021 35.829 174.221 36.0259 174.438 36.1314C174.617 36.2157 174.633 36.2485 174.586 36.415C174.441 36.9329 173.953 37.6665 173.222 38.4587C173.039 38.6579 172.784 38.9743 172.655 39.1618C172.526 39.3517 172.362 39.5368 172.287 39.579C172.118 39.6751 170.693 42.115 170.583 42.5017C170.452 42.9587 170.728 43.4181 171.448 43.9454C171.865 44.2501 172.5 44.161 173.187 43.704C173.344 43.5985 174.068 42.947 174.797 42.2556C176.114 41.004 176.299 40.7954 177.673 39.0189C178.657 37.7439 179.318 37.1696 180.935 36.19C181.385 35.9157 182.074 35.4235 182.466 35.0954C182.855 34.765 183.293 34.397 183.438 34.2751C183.9 33.8837 185.313 32.4235 185.869 31.7603C186.331 31.2095 186.443 31.036 186.645 30.579C187.179 29.3743 187.65 27.5532 187.73 26.386C187.781 25.615 187.791 25.5798 188.032 25.179C188.234 24.8485 188.353 24.7196 188.646 24.5228C189.216 24.1384 190.437 23.597 191.257 23.3626C192.417 23.0345 192.663 22.9923 197.131 22.39C200.562 21.9282 202.875 21.497 203.51 21.2064C204.206 20.8853 204.431 20.6392 204.16 20.4962C204.075 20.4517 203.932 20.4962 203.674 20.6439C203.475 20.7587 203.086 20.9134 202.81 20.9884C201.86 21.2415 199.247 21.6845 197.189 21.9423C195.042 22.2118 192.581 22.5868 191.801 22.7673C190.247 23.1282 188.578 23.8923 187.967 24.5251C187.535 24.9704 187.334 25.4884 187.296 26.2525C187.249 27.1993 187.003 28.3126 186.546 29.665C186.16 30.8064 185.81 31.2915 184.184 32.9462C182.958 34.1954 181.636 35.2689 180.45 35.9814C179.06 36.8181 178.28 37.5095 177.366 38.7118C176.475 39.8837 175.718 40.7907 175.369 41.1048C175.163 41.2923 174.769 41.665 174.497 41.9368C173.185 43.24 172.669 43.6267 172.17 43.6876C172.017 43.704 171.818 43.6782 171.729 43.6314C171.415 43.4626 171.031 43.0571 170.981 42.8415C170.932 42.6329 170.939 42.6142 171.635 41.3696C172.024 40.6782 172.399 40.0595 172.472 39.9985C172.643 39.8509 172.906 39.8392 173.864 39.9446C174.549 40.0196 174.656 40.0126 174.738 39.8978C174.874 39.7032 174.774 39.5345 174.403 39.3376C174.16 39.2087 173.979 39.1665 173.644 39.1571C173.403 39.1501 173.22 39.1173 173.238 39.0845C173.257 39.0517 173.377 38.9181 173.506 38.7892C174.605 37.6853 175.285 36.3071 175.071 35.6181L174.996 35.372L175.418 35.3814C175.653 35.386 176.121 35.4306 176.461 35.4798C176.801 35.529 177.221 35.5571 177.394 35.5454C178.278 35.4775 178.84 35.1634 178.589 34.8751C178.505 34.779 178.32 34.779 177.809 34.8751C177.153 34.997 176.909 34.9548 176.281 34.6056C175.838 34.3618 175.61 34.2751 175.095 34.1579C174.746 34.0782 174.455 33.9985 174.448 33.9798C174.434 33.9306 176.004 33.4829 176.628 33.361C177.544 33.1806 178.374 32.911 179.285 32.4985C180.903 31.7696 181.873 30.9493 181.636 30.5181C181.451 30.1853 180.987 30.3376 179.208 31.3173C178.624 31.6407 177.799 32.0462 177.378 32.2173C176.215 32.6931 174.715 33.1196 173.897 33.2087C173.499 33.2532 173.063 33.3282 172.929 33.3751C172.683 33.4642 172.381 33.722 172.106 34.0806C172.024 34.1884 171.724 34.4392 171.438 34.6384C170.909 35.0087 170.534 35.1446 169.322 35.4118C168.638 35.5618 168.492 35.686 167.688 36.8321C166.657 38.2993 166.58 38.3767 164.909 39.4712C164.185 39.947 162.746 40.6689 162.253 40.8001C161.932 40.8868 161.944 40.854 162.335 40.5775C162.525 40.4439 162.715 40.24 162.851 40.0314C163.043 39.729 163.064 39.6446 163.085 39.1642C163.097 38.8735 163.078 38.5993 163.043 38.5595C162.989 38.4962 163.024 38.447 163.259 38.2618C163.739 37.8798 164.435 37.1837 164.958 36.5603C165.736 35.6321 165.842 35.4962 166.205 34.9571C166.39 34.6806 166.643 34.3314 166.767 34.179C166.997 33.8907 168.689 32.4821 169.463 31.9337C170.381 31.2798 171.755 30.1548 172.05 29.8126C172.552 29.2267 172.702 28.8423 172.477 28.7228C172.343 28.6525 172.083 28.8634 171.368 29.6228C170.974 30.04 170.585 30.4337 170.501 30.497L170.349 30.6142L170.342 30.197C170.328 29.4892 169.957 28.9032 169.395 28.7064C169.174 28.6267 169.046 28.6454 168.492 28.8282C167.681 29.0978 167.398 29.2454 166.571 29.836C166.205 30.0962 165.492 30.5275 164.988 30.7923C163.634 31.5095 163.046 31.8728 162.319 32.44C161.958 32.7189 161.478 33.054 161.248 33.1806C160.73 33.4712 160.528 33.661 159.783 34.5751C159.146 35.3579 158.588 35.8782 157.988 36.2485C157.517 36.5392 156.579 37.2212 156.124 37.6032C155.935 37.7626 155.485 38.0556 155.121 38.2571C154.76 38.4564 154.355 38.7259 154.224 38.8525C153.907 39.1595 153.851 39.1712 153.872 38.9251C153.884 38.8126 153.809 38.536 153.708 38.3134C153.607 38.0907 153.504 37.861 153.481 37.8025C153.443 37.7157 153.516 37.6243 153.928 37.2493C154.2 37.0032 154.817 36.3962 155.299 35.9017C156.769 34.3923 157.149 34.0946 158.728 33.204C161.25 31.7814 162.471 31.1321 163.749 30.5321C168.335 28.3712 170.876 26.965 173.67 25.0407C174.825 24.2462 175.46 23.74 176.761 22.5845C178.409 21.1243 179.649 20.2454 181.472 19.254C182.944 18.4525 184.331 17.8384 189.115 15.879C190.299 15.3939 191.946 14.6884 192.778 14.3087C193.61 13.929 194.323 13.6173 194.36 13.615C194.398 13.6126 194.463 13.5493 194.503 13.4743C194.597 13.2939 194.386 13.1743 194.128 13.2611C194.025 13.2962 193.692 13.4415 193.388 13.5821C192.312 14.0814 191.138 14.5853 189.588 15.2134C187.214 16.1767 183.757 17.6368 182.74 18.1056C181.796 18.5415 179.878 19.6431 178.978 20.2689C178.001 20.9462 177.235 21.5603 176.29 22.4204C175.357 23.2712 174.38 24.0329 173.145 24.8743C170.482 26.6837 167.874 28.1134 163.36 30.2345C161.646 31.0384 157.927 33.0962 157.034 33.7314C156.385 34.1931 155.958 34.5821 155.06 35.522C154.207 36.415 152.792 37.7368 151.81 38.5571C150.917 39.3025 150.64 39.5814 150.462 39.9189C150.326 40.1743 150.307 40.186 149.773 40.3056C149.471 40.3712 148.915 40.4579 148.54 40.4978C148.165 40.5376 147.368 40.7087 146.771 40.8821C145.821 41.154 145.324 41.2384 144.293 41.297C144.124 41.3064 144.042 41.3556 143.951 41.4985L143.829 41.686L143.396 41.4564C143.042 41.2665 142.889 41.2196 142.559 41.2032C141.971 41.1751 141.078 41.2946 140.257 41.5103C138.94 41.8595 137.923 41.9368 137.103 41.7493C136.749 41.6696 135.722 41.0626 135.45 40.772C135.162 40.465 134.977 40.0525 134.899 39.5415C134.834 39.1126 134.829 37.1087 134.892 36.3212C134.906 36.1384 134.899 35.9321 134.878 35.8618C134.829 35.6978 134.658 35.672 134.522 35.8079C134.356 35.972 134.513 35.3368 134.763 34.8329C134.998 34.3618 135.225 34.1485 135.865 33.8017C136.217 33.6118 136.568 33.3071 137.065 32.7634C137.217 32.5946 137.724 32.1376 138.19 31.7439C139.496 30.647 139.91 30.1079 140.595 28.6126C141.073 27.5673 141.335 26.815 141.352 26.4306C141.378 25.8142 141.021 25.24 140.471 25.0126C140.206 24.9025 140.121 24.9001 139.875 24.9962C139.496 25.1439 139.315 25.3501 138.68 26.3814C137.881 27.6751 137.85 27.7079 136.781 28.4017C136.261 28.7368 135.349 29.3603 134.756 29.7868C134.163 30.211 133.467 30.6587 133.212 30.7782C132.956 30.9001 132.216 31.1579 131.571 31.3548C130.266 31.7485 130.353 31.69 129.401 32.7845C128.71 33.5767 126.673 35.0017 125.297 35.6556C124.549 36.0095 123.722 36.1735 121.364 36.4337C119.006 36.6915 117.708 36.8485 116.065 37.0642C114.392 37.2868 111.734 37.5821 109.13 37.84C107.182 38.0321 106.172 38.2548 106.027 38.5267C105.947 38.6814 106.01 38.815 106.158 38.8056C106.205 38.8032 106.348 38.7493 106.477 38.6884C106.819 38.5243 107.677 38.379 108.778 38.2993C109.315 38.2595 110.046 38.1915 110.405 38.1517C110.763 38.1095 111.727 38.0064 112.545 37.922C113.36 37.8376 114.919 37.6525 116.004 37.5118C117.912 37.261 119.447 37.0782 121.77 36.8275C123.15 36.6775 124.338 36.4735 124.866 36.3001C125.761 36.0025 126.98 35.29 128.36 34.2564C129.19 33.6353 129.453 33.4009 129.865 32.9134C130.139 32.59 130.442 32.2689 130.538 32.2009C130.634 32.1329 131.264 31.9009 131.939 31.6853C132.617 31.472 133.338 31.2118 133.545 31.1087C133.751 31.0079 134.456 30.5415 135.113 30.0728C135.769 29.604 136.641 29.0064 137.053 28.7439C138.131 28.0618 138.155 28.0384 138.804 26.9673C139.702 25.4884 139.969 25.2306 140.384 25.4532C140.677 25.6103 140.904 25.9993 140.911 26.3532C140.918 26.74 140.613 27.6071 140.072 28.7345C139.521 29.8829 139.123 30.3798 137.944 31.3806C137.487 31.772 136.882 32.3251 136.606 32.611C136.06 33.1759 135.945 33.2673 135.474 33.5181C134.721 33.9189 134.381 34.4251 133.971 35.7704C133.484 37.3595 133.378 38.2759 133.587 39.1032C133.737 39.6962 134.023 39.804 134.267 39.354L134.391 39.1267L134.41 39.3165C134.445 39.6962 134.794 40.6806 134.972 40.9056C135.094 41.0603 135.41 41.3017 135.91 41.6228L136.662 42.1056L137.316 42.2157C138.141 42.3564 138.963 42.286 140.199 41.9743C141.225 41.7118 142.153 41.5923 142.662 41.6556C142.941 41.6884 143.081 41.747 143.44 41.972C143.829 42.2157 143.895 42.2415 144.035 42.19C144.153 42.1478 144.209 42.0775 144.26 41.9157C144.324 41.7095 144.34 41.7001 144.633 41.7071C145.174 41.7165 145.842 41.5946 146.988 41.2782C147.605 41.1095 148.395 40.9407 148.744 40.9079C149.091 40.8728 149.707 40.7696 150.113 40.6782C152.011 40.2517 151.948 40.254 153.837 40.554C155.473 40.8142 155.897 41.0064 156.464 41.747C156.663 42.0071 156.663 42.0259 156.474 42.115C156.363 42.1642 156.331 42.1548 156.267 42.047C156.174 41.8876 155.78 41.8384 154.819 41.8642C154.467 41.8735 154.158 41.8712 154.132 41.8571C154.036 41.8079 153.717 41.9368 153.656 42.0517C153.621 42.1173 153.61 42.2392 153.631 42.3235C153.654 42.4079 153.656 42.4782 153.638 42.4829C153.619 42.4853 153.378 42.49 153.099 42.4923C152.285 42.4993 151.664 42.5696 150.837 42.7525C150.005 42.9329 148.158 43.6079 147.443 43.9923C146.492 44.5009 145.606 44.7376 144.087 44.8876C143.356 44.9579 142.334 45.1126 141.816 45.2275C141.298 45.3423 140.454 45.504 139.941 45.586C138.734 45.7782 137.785 46.179 137.808 46.4884C137.824 46.7157 137.965 46.7532 138.764 46.7415C139.77 46.7251 140.41 46.6454 141.312 46.4181C141.713 46.3196 142.381 46.1673 142.796 46.0829C143.213 46.0009 143.829 45.8485 144.164 45.7478C145.212 45.4314 146.937 44.761 147.518 44.447C148.053 44.1564 149.841 43.4439 150.403 43.2962L150.675 43.2235L150.474 43.3689C150.361 43.4485 149.956 43.711 149.571 43.9548C148.76 44.4657 148.435 44.7282 147.835 45.3517C147.598 45.6001 147.298 45.8767 147.171 45.9681C147.042 46.0618 146.342 46.315 145.556 46.5493C142.615 47.4329 141.11 47.9439 140.283 48.3423C139.465 48.7337 137.827 49.5962 137.56 49.7743C137.487 49.8212 137.161 50.0415 136.833 50.2618C136.186 50.6978 135.828 50.8384 135.389 50.8314C134.956 50.8243 134.649 50.7071 132.778 49.8376C130.875 48.954 130.796 48.9189 129.495 48.4337C128.215 47.9532 127.285 47.6837 124.845 47.086C123.668 46.7978 122.337 46.4298 121.887 46.2704C121.435 46.1087 120.706 45.865 120.263 45.729C119.822 45.5907 119.079 45.3446 118.617 45.1829C116.749 44.529 115.578 44.4587 113.86 44.8946C113.447 45.0001 112.641 45.1782 112.069 45.2931C111.495 45.4056 110.63 45.5978 110.142 45.7196C109.657 45.8392 108.87 46.0056 108.394 46.09C107.918 46.1743 106.859 46.3735 106.041 46.5329C104.344 46.8634 103.242 47.0345 101.895 47.1751C101.377 47.2267 100.92 47.3017 100.878 47.3392C100.81 47.4001 100.868 47.6368 100.964 47.6884C101.119 47.7704 104.283 47.3251 106.102 46.9642C106.786 46.8282 107.831 46.629 108.424 46.5212C109.015 46.4157 109.817 46.247 110.206 46.1509C110.595 46.0525 111.401 45.8743 112.001 45.7548C112.599 45.6353 113.407 45.4571 113.794 45.3587C114.633 45.1501 115.217 45.0564 115.76 45.0446C116.339 45.0353 117.45 45.2392 118.191 45.4946C118.542 45.6142 119.356 45.8814 120 46.0876C120.645 46.2939 121.477 46.5751 121.849 46.711C122.224 46.847 123.497 47.1985 124.678 47.4892C125.86 47.7798 127.158 48.1126 127.563 48.2298C128.778 48.579 130.484 49.247 132.279 50.079C133.21 50.5103 134.199 50.9532 134.478 51.061C135.453 51.4384 136.06 51.3189 137.295 50.5009C137.773 50.1845 138.204 49.9595 138.588 49.8235C138.907 49.7134 139.542 49.4884 140.002 49.3243C140.904 49.0056 141.375 48.9212 143.913 48.6189C146.869 48.2673 147.176 48.0892 148.378 46.0337C148.988 44.9931 149.321 44.5501 149.574 44.4446C149.618 44.4259 149.993 44.1845 150.406 43.9079C151.592 43.1157 151.915 42.9751 152.651 42.9423C153.544 42.9025 154.104 42.9212 154.247 42.9962C154.601 43.1837 155.602 43.0056 156.474 42.6025Z" fill="#669BB5"/>
</g>
</g>
</g>
<path d="M117.582 71.5387C117.582 72.5137 117.774 73.0012 118.163 73.0012C118.531 73.0012 118.801 72.877 118.969 72.6262C119.143 72.3778 119.232 71.9231 119.232 71.2668H120.526C120.53 71.3747 120.535 71.5434 120.535 71.7731C120.535 72.5114 120.35 73.1512 119.982 73.695C119.532 74.384 118.812 74.7262 117.826 74.7262C117.188 74.7262 116.64 74.5481 116.185 74.1918C115.735 73.8309 115.426 73.3528 115.257 72.7575C114.062 74.07 112.557 74.7262 110.738 74.7262C109.737 74.7262 108.865 74.4356 108.122 73.8543C107.377 73.2684 107.007 72.4458 107.007 71.3887C107.007 69.57 108.352 68.227 111.047 67.3575C112.754 66.8137 113.771 66.4387 114.104 66.2325C114.441 66.0215 114.659 65.8083 114.76 65.595C114.865 65.377 114.919 65.1309 114.919 64.8543C114.919 64.3739 114.68 63.9708 114.207 63.645C113.731 63.3215 113.112 63.1575 112.351 63.1575C111.587 63.1575 110.916 63.3637 110.335 63.7762C110.74 64.0762 110.944 64.4676 110.944 64.9481C110.944 65.4239 110.785 65.8059 110.466 66.0918C110.152 66.3731 109.772 66.5137 109.322 66.5137C108.877 66.5137 108.509 66.3801 108.216 66.1106C107.928 65.8434 107.785 65.4637 107.785 64.9762C107.785 64.02 108.268 63.2465 109.238 62.6512C110.206 62.0512 111.385 61.7512 112.772 61.7512C115.247 61.7512 116.759 62.5575 117.31 64.17C117.49 64.702 117.582 65.3184 117.582 66.0168V71.5387ZM112.154 68.4731C111.427 68.7872 110.883 69.1856 110.522 69.6731C110.166 70.1606 109.988 70.6926 109.988 71.2668C109.988 71.8434 110.143 72.2793 110.457 72.5793C110.769 72.8747 111.155 73.02 111.619 73.02C112.576 73.02 113.363 72.6872 113.982 72.0168C114.605 71.3489 114.919 70.4137 114.919 69.2137V67.32C114.394 67.5895 113.837 67.8356 113.251 68.0606C112.669 68.2809 112.304 68.4168 112.154 68.4731Z" fill="#8BC34A" fill-opacity="0.97"/>
<path d="M139.457 63.6356C139.037 63.2185 138.35 63.0075 137.394 63.0075C136.443 63.0075 135.8 63.3544 135.463 64.0481C135.374 64.2427 135.332 64.4653 135.332 64.7138C135.332 64.9646 135.428 65.2083 135.622 65.445C135.821 65.6771 136.077 65.8997 136.391 66.1106C136.703 66.3169 137.052 66.5208 137.441 66.72C137.828 66.9146 138.231 67.1278 138.65 67.3575C139.068 67.5896 139.513 67.831 139.982 68.0794C141.7 69.0169 142.56 70.0552 142.56 71.1919C142.56 72.331 142.114 73.2052 141.229 73.8169C140.34 74.4239 139.161 74.7263 137.694 74.7263C136.232 74.7263 135.025 74.4638 134.075 73.9388C133.124 73.4138 132.65 72.7388 132.65 71.9138C132.65 71.4591 132.796 71.0771 133.091 70.77C133.391 70.4583 133.771 70.3013 134.235 70.3013C134.704 70.3013 135.088 70.4489 135.388 70.7419C135.693 71.0302 135.847 71.3747 135.847 71.7731C135.847 72.1739 135.707 72.5138 135.425 72.795C136.082 73.1771 136.897 73.3669 137.872 73.3669C138.847 73.3669 139.532 73.1396 139.925 72.6825C140.087 72.5021 140.169 72.2677 140.169 71.9794C140.169 71.2997 139.412 70.5896 137.9 69.8513C136.85 69.3403 136.063 68.9325 135.538 68.6325C133.855 67.6833 133.016 66.5372 133.016 65.1919C133.016 64.156 133.443 63.3263 134.3 62.7075C135.156 62.0841 136.25 61.77 137.582 61.77C138.913 61.77 140.031 62.0208 140.938 62.52C141.843 63.0146 142.297 63.6544 142.297 64.4419C142.297 64.8989 142.187 65.2388 141.969 65.4638C141.58 65.8458 141.21 66.0356 140.854 66.0356C140.277 66.0356 139.843 65.8927 139.55 65.6044C139.262 65.3114 139.119 64.9763 139.119 64.6013C139.119 64.2216 139.232 63.8981 139.457 63.6356Z" fill="#8BC34A" fill-opacity="0.97"/>
<path d="M163.582 63.5982C162.232 63.5982 161.137 64.0177 160.3 64.8544V71.8388C160.3 72.3451 160.385 72.6638 160.553 72.7951C160.839 73.0201 161.381 73.1326 162.175 73.1326V74.4826H155.922V73.1326C156.628 73.1326 157.071 73.0623 157.253 72.9169C157.434 72.774 157.544 72.6216 157.582 72.4576C157.624 72.2888 157.647 72.0826 157.647 71.8388V58.4794C157.647 57.8935 157.593 57.5091 157.488 57.3263C157.387 57.1458 157.108 57.0544 156.653 57.0544H155.894V55.6951C156.667 55.6951 157.275 55.6365 157.713 55.5169C158.149 55.3998 158.458 55.3154 158.641 55.2638C158.828 55.2076 159.03 55.1794 159.25 55.1794C159.682 55.1794 159.963 55.306 160.094 55.5544C160.23 55.8052 160.3 56.206 160.3 56.7544V63.4013C161.149 62.6654 162.168 62.1615 163.357 61.8919C163.743 61.7982 164.121 61.7513 164.491 61.7513C167.146 61.7513 168.475 63.5185 168.475 67.0482V71.8107C168.475 72.3544 168.553 72.7107 168.71 72.8794C168.864 73.0482 169.293 73.1326 169.994 73.1326V74.4826H164.172V73.1326C164.915 73.1326 165.363 73.0576 165.513 72.9076C165.667 72.7529 165.759 72.5935 165.785 72.4294C165.808 72.2607 165.822 72.0544 165.822 71.8107V67.2076C165.822 66.0708 165.714 65.2857 165.503 64.8544C165.084 64.0177 164.444 63.5982 163.582 63.5982Z" fill="#8BC34A" fill-opacity="0.97"/>
<path d="M193.81 71.5387C193.81 72.5137 194.003 73.0012 194.392 73.0012C194.76 73.0012 195.029 72.877 195.198 72.6262C195.371 72.3778 195.46 71.9231 195.46 71.2668H196.754C196.759 71.3747 196.763 71.5434 196.763 71.7731C196.763 72.5114 196.578 73.1512 196.21 73.695C195.76 74.384 195.041 74.7262 194.054 74.7262C193.417 74.7262 192.868 74.5481 192.413 74.1918C191.963 73.8309 191.654 73.3528 191.485 72.7575C190.29 74.07 188.785 74.7262 186.967 74.7262C185.966 74.7262 185.094 74.4356 184.351 73.8543C183.606 73.2684 183.235 72.4458 183.235 71.3887C183.235 69.57 184.581 68.227 187.276 67.3575C188.982 66.8137 189.999 66.4387 190.332 66.2325C190.67 66.0215 190.888 65.8083 190.988 65.595C191.094 65.377 191.148 65.1309 191.148 64.8543C191.148 64.3739 190.909 63.9708 190.435 63.645C189.96 63.3215 189.341 63.1575 188.579 63.1575C187.815 63.1575 187.145 63.3637 186.563 63.7762C186.969 64.0762 187.173 64.4676 187.173 64.9481C187.173 65.4239 187.013 65.8059 186.695 66.0918C186.381 66.3731 186.001 66.5137 185.551 66.5137C185.106 66.5137 184.738 66.3801 184.445 66.1106C184.156 65.8434 184.013 65.4637 184.013 64.9762C184.013 64.02 184.496 63.2465 185.467 62.6512C186.435 62.0512 187.613 61.7512 189.001 61.7512C191.476 61.7512 192.988 62.5575 193.538 64.17C193.719 64.702 193.81 65.3184 193.81 66.0168V71.5387ZM188.382 68.4731C187.656 68.7872 187.112 69.1856 186.751 69.6731C186.395 70.1606 186.217 70.6926 186.217 71.2668C186.217 71.8434 186.371 72.2793 186.685 72.5793C186.997 72.8747 187.384 73.02 187.848 73.02C188.804 73.02 189.592 72.6872 190.21 72.0168C190.834 71.3489 191.148 70.4137 191.148 69.2137V67.32C190.623 67.5895 190.065 67.8356 189.479 68.0606C188.898 68.2809 188.532 68.4168 188.382 68.4731Z" fill="#8BC34A" fill-opacity="0.97"/>
</svg>
